<svg width="500" height="200" viewBox="0 0 500 200" xmlns="http://www.w3.org/2000/svg">
  <!-- Purple waveform -->
  <path d="M27,107 C38,70 49,170 60,107 C71,44 82,150 93,107 C104,64 115,130 126,107 C137,84 148,120 159,107 C170,94 181,110 192,107" stroke="#8B5CF6" stroke-width="8" fill="none" />

  <!-- Sacred Shifter text -->
  <g fill="#000">
    <path d="M235,65 Q240,60 245,65 Q250,70 255,80 Q260,90 260,105 Q260,120 255,130 Q250,140 245,145 Q240,150 235,145 Q230,140 230,130 L230,80 Q230,70 235,65 Z M238,75 L238,135 Q240,138 242,135 Q244,132 246,125 Q248,118 248,105 Q248,92 246,85 Q244,78 242,75 Q240,72 238,75 Z" />
    <path d="M280,65 Q285,60 290,65 Q295,70 295,80 L295,130 Q295,140 290,145 Q285,150 280,145 Q275,140 275,130 L275,80 Q275,70 280,65 Z M282,75 L282,135 Q285,138 288,135 Q291,132 291,125 L291,85 Q291,78 288,75 Q285,72 282,75 Z" />
    <path d="M320,65 Q325,60 330,65 Q335,70 335,80 L335,95 Q335,100 340,100 L350,100 Q355,100 355,105 Q355,110 350,110 L340,110 Q335,110 335,115 L335,130 Q335,140 330,145 Q325,150 320,145 Q315,140 315,130 L315,80 Q315,70 320,65 Z M322,75 L322,135 Q325,138 328,135 Q331,132 331,125 L331,85 Q331,78 328,75 Q325,72 322,75 Z" />
    <path d="M375,65 Q380,60 385,65 Q390,70 390,80 L390,95 Q390,100 385,100 L380,100 Q375,100 375,105 L375,120 L380,120 Q385,120 385,125 Q385,130 380,130 L375,130 L375,145 L390,145 Q395,145 395,150 Q395,155 390,155 L375,155 Q370,155 370,150 L370,80 Q370,70 375,65 Z M377,75 L377,90 L380,90 Q383,90 383,85 L383,80 Q383,75 380,75 L377,75 Z" />
    <path d="M415,65 Q420,60 425,65 Q430,70 430,80 L430,130 Q430,140 425,145 Q420,150 415,145 Q410,140 410,130 L410,80 Q410,70 415,65 Z M417,75 L417,135 Q420,138 423,135 Q426,132 426,125 L426,85 Q426,78 423,75 Q420,72 417,75 Z" />
    <path d="M455,65 Q460,60 465,65 Q470,70 470,80 L470,145 L465,155 L445,155 Q440,155 440,150 Q440,145 445,145 L460,145 L460,80 Q460,75 455,75 L450,75 Q445,75 445,70 Q445,65 450,65 L455,65 Z" />
    <path d="M485,120 Q488,115 493,120 L500,130 Q505,135 500,140 L493,150 Q488,155 485,150 Q482,145 485,140 L490,130 L485,120 Z" />

    <!-- Custom lowercase letters -->
    <path d="M220,180 Q215,185 210,180 Q205,175 205,165 L205,115 Q205,105 210,100 Q215,95 220,100 Q225,105 225,115 L225,165 Q225,175 220,180 Z M218,110 L218,170 Q215,173 212,170 Q209,167 209,160 L209,120 Q209,113 212,110 Q215,107 218,110 Z" />
    <path d="M240,180 Q235,185 230,180 Q225,175 225,165 L225,115 Q225,105 230,100 Q235,95 240,100 Q245,105 245,115 L245,165 Q245,175 240,180 Z M238,110 L238,170 Q235,173 232,170 Q229,167 229,160 L229,120 Q229,113 232,110 Q235,107 238,110 Z" />
    <path d="M265,100 Q270,95 275,100 Q280,105 280,115 L280,165 Q280,175 275,180 Q270,185 265,180 Q260,175 260,165 L260,115 Q260,105 265,100 Z M267,110 L267,170 Q270,173 273,170 Q276,167 276,160 L276,120 Q276,113 273,110 Q270,107 267,110 Z" />
    <path d="M300,100 Q305,95 310,100 Q315,105 315,115 L315,165 Q315,175 310,180 Q305,185 300,180 Q295,175 295,165 L295,115 Q295,105 300,100 Z M302,110 L302,170 Q305,173 308,170 Q311,167 311,160 L311,120 Q311,113 308,110 Q305,107 302,110 Z" />
    <path d="M335,100 Q340,95 345,100 Q350,105 350,115 L350,165 Q350,175 345,180 Q340,185 335,180 Q330,175 330,165 L330,115 Q330,105 335,100 Z M337,110 L337,170 Q340,173 343,170 Q346,167 346,160 L346,120 Q346,113 343,110 Q340,107 337,110 Z" />
    <path d="M385,100 Q390,95 395,100 Q400,105 400,115 L400,165 Q400,175 395,180 Q390,185 385,180 Q380,175 380,165 L380,155 L370,180 Q365,185 360,180 Q355,175 355,165 L355,115 Q355,105 360,100 Q365,95 370,100 Q375,105 375,115 L375,155 L380,140 L380,115 Q380,105 385,100 Z M387,110 L387,170 Q390,173 393,170 Q396,167 396,160 L396,120 Q396,113 393,110 Q390,107 387,110 Z M367,110 L367,170 Q370,173 373,170 Q376,167 376,160 L376,120 Q376,113 373,110 Q370,107 367,110 Z" />
    <path d="M420,100 Q425,95 430,100 Q435,105 435,115 L435,165 Q435,175 430,180 Q425,185 420,180 Q415,175 415,165 L415,115 Q415,105 420,100 Z M422,110 L422,170 Q425,173 428,170 Q431,167 431,160 L431,120 Q431,113 428,110 Q425,107 422,110 Z" />
  </g>
</svg>